HIERARCHY
ROOT root
{
	OFFSET	0	13.1	24.9
	CHANNELS 6  Xposition Yposition Zposition Xrotation Yrotation Zrotation
	JOINT spine_1
	{
		OFFSET	0	9.99999	0
		CHANNELS 3  Xrotation Yrotation Zrotation
		JOINT spine_2
		{
			OFFSET	0	112	-10
			CHANNELS 3  Xrotation Yrotation Zrotation
			JOINT spine_3
			{
				OFFSET	0	206.5	19.3
				CHANNELS 3  Xrotation Yrotation Zrotation
				JOINT spine_4
				{
					OFFSET	0	110.4	14.6
					CHANNELS 3  Xrotation Yrotation Zrotation
					JOINT neck_1
					{
						OFFSET	0	71.8	-50.3
						CHANNELS 3  Xrotation Yrotation Zrotation
						JOINT neck_2
						{
							OFFSET	0	86.2	-25.8
							CHANNELS 3  Xrotation Yrotation Zrotation
							JOINT head_ee
							{
								OFFSET	0	179.8	-8.7
								CHANNELS 3  Xrotation Yrotation Zrotation
								End Site
								{
									OFFSET	1	0	0
								}
							}
						}
					}
					JOINT left_clavicle
					{
						OFFSET	-43.2	22.4	-70.8
						CHANNELS 3  Xrotation Yrotation Zrotation
						JOINT left_shoulder
						{
							OFFSET	-93.9	-5.79999	48.7
							CHANNELS 3  Xrotation Yrotation Zrotation
							JOINT left_elbow
							{
								OFFSET	-291.4	-30.8	15.2
								CHANNELS 3  Xrotation Yrotation Zrotation
								JOINT left_lowarm_twist
								{
									OFFSET	-110.7	-3.89999	13.6
									CHANNELS 3  Xrotation Yrotation Zrotation
									JOINT left_hand
									{
										OFFSET	-110.7	-3.89999	13.6
										CHANNELS 3  Xrotation Yrotation Zrotation
										JOINT left_ee
										{
											OFFSET	-80.8	-5.10001	12.1
											CHANNELS 3  Xrotation Yrotation Zrotation
											End Site
											{
												OFFSET	1	0	0
											}
										}
									}
								}
							}
						}
					}
					JOINT right_clavicle
					{
						OFFSET	43.2	22.4	-70.8
						CHANNELS 3  Xrotation Yrotation Zrotation
						JOINT right_shoulder
						{
							OFFSET	93.9	-5.79999	48.7
							CHANNELS 3  Xrotation Yrotation Zrotation
							JOINT right_elbow
							{
								OFFSET	291.4	-30.8	15.2
								CHANNELS 3  Xrotation Yrotation Zrotation
								JOINT right_lowarm_twist
								{
									OFFSET	110.7	-3.89999	13.6
									CHANNELS 3  Xrotation Yrotation Zrotation
									JOINT right_hand
									{
										OFFSET	110.7	-3.89999	13.6
										CHANNELS 3  Xrotation Yrotation Zrotation
										JOINT right_ee
										{
											OFFSET	80.8	-5.10001	12.1
											CHANNELS 3  Xrotation Yrotation Zrotation
											End Site
											{
												OFFSET	1	0	0
											}
										}
									}
								}
							}
						}
					}
				}
			}
		}
	}
	JOINT left_hip
	{
		OFFSET	-82.8	-127.5	0.300001
		CHANNELS 3  Xrotation Yrotation Zrotation
		JOINT left_knee
		{
			OFFSET	-28.2	-396.7	2.2
			CHANNELS 3  Xrotation Yrotation Zrotation
			JOINT left_ankle
			{
				OFFSET	-11.7	-411.3	35.4
				CHANNELS 3  Xrotation Yrotation Zrotation
				JOINT left_toes
				{
					OFFSET	0	-60	-88.6
					CHANNELS 3  Xrotation Yrotation Zrotation
					JOINT left_foot_ee
					{
						OFFSET	-22.5	-16.5	-42.2
						CHANNELS 3  Xrotation Yrotation Zrotation
						End Site
						{
							OFFSET	1	0	0
						}
					}
				}
			}
		}
	}
	JOINT right_hip
	{
		OFFSET	82.8	-127.5	0.300001
		CHANNELS 3  Xrotation Yrotation Zrotation
		JOINT right_knee
		{
			OFFSET	28.2	-396.7	2.2
			CHANNELS 3  Xrotation Yrotation Zrotation
			JOINT right_ankle
			{
				OFFSET	11.7	-411.3	35.4
				CHANNELS 3  Xrotation Yrotation Zrotation
				JOINT right_toes
				{
					OFFSET	0	-60	-88.6
					CHANNELS 3  Xrotation Yrotation Zrotation
					JOINT right_foot_ee
					{
						OFFSET	22.5	-16.5	-42.2
						CHANNELS 3  Xrotation Yrotation Zrotation
						End Site
						{
							OFFSET	1	0	0
						}
					}
				}
			}
		}
	}
}
MOTION
Frames: 9
Frame Time: 0.02
1844.17 743.374 -613.146 -172.99 -75.4453 -169.3 0.962411 -0.132117 -1.1397 0.963132 -0.0593324 -1.1458 0.964491 0.163738 -1.13559 0.962692 -0.01765 -1.1472 -11.6961 7.18707 0.916049 -11.7796 13.0228 2.88085 -0.0 0.0 -0.0 0.817605 13.6491 2.94617 -6.53115 -31.8664 65.1179 1.38701 -34.4904 0.430568 -83.3311 -8.24268 5.22251 -0.52696 1.71174 -2.78287 -0.0 0.0 -0.0 4.84506 19.8131 -8.11792 -14.7807 18.4616 -66.5079 0.71464 19.4946 -0.122764 23.2359 -0.225454 2.93934 0.0520929 -29.2063 -11.701 0.0 0.0 0.0 5.92392 31.5735 -8.18809 2.4909 -0.11056 -0.366196 4.39065 -0.968497 -0.643455 -5.14106 0.0 0.0 -0.0 0.0 -0.0 9.83962 -1.26095 -7.19328 -9.33449 -0.270337 -1.40546 4.90849 -3.99264 0.71098 -17.588 0.0 0.0 0.0 0.0 0.0 
1849.83 741.957 -608.262 -172.692 -76.3173 -169.234 0.996125 -0.0991055 -1.13062 0.996836 -0.0269651 -1.13463 0.997519 0.192691 -1.11848 0.995774 0.0136412 -1.13487 -10.8472 7.44263 0.953564 -10.9194 13.4277 2.89009 -0.0 0.0 -0.0 0.600794 14.0242 2.62931 -7.07317 -31.8551 65.5706 1.40248 -34.7876 0.439364 -83.965 -8.32231 5.20883 -0.747725 0.805856 -4.64783 -0.0 0.0 -0.0 4.94913 19.1443 -8.4009 -14.2678 18.5691 -66.6481 0.660455 18.1166 -0.105296 23.2825 -0.224702 2.94525 -0.278094 -28.9384 -9.79952 0.0 0.0 0.0 6.48133 30.8281 -9.30739 -3.58222 0.130827 0.534104 11.3368 -2.43143 -1.6297 -5.43828 0.0 0.0 -0.0 0.0 -0.0 9.42201 -2.05049 -7.80181 -9.53352 -0.273593 -1.43583 7.45257 -5.75571 1.06916 -17.099 0.0 0.0 0.0 0.0 0.0 
1861.29 740.561 -601.917 -174.796 -76.9174 -171.434 0.964131 -0.0414642 -1.07857 0.964777 0.0272477 -1.07902 0.964383 0.235757 -1.0533 0.962841 0.0664583 -1.07731 -10.7669 7.57535 0.94946 -10.8404 13.6759 2.91239 -0.0 0.0 -0.0 0.0708144 15.7931 1.96782 -8.24182 -31.6179 65.9131 1.41237 -34.9765 0.445021 -84.4697 -8.38557 5.1973 -0.957419 0.633289 -6.12741 -0.0 0.0 -0.0 5.01736 18.7156 -8.58468 -14.04 18.6359 -66.5079 0.653287 17.9327 -0.103078 23.4537 -0.221899 2.96693 -0.494032 -28.9393 -8.62353 0.0 0.0 0.0 7.63206 30.1488 -10.5441 -8.67845 0.258857 1.30545 14.0523 -2.57777 -1.99922 -6.07393 0.0 0.0 -0.0 0.0 -0.0 8.07297 -2.49259 -7.86624 -10.1004 -0.282289 -1.52239 10.1651 -7.22569 1.44414 -16.3636 0.0 0.0 0.0 0.0 0.0 
1868.77 739.503 -598.758 -177.812 -77.414 -174.542 0.936831 0.0139975 -1.01537 0.937401 0.0785766 -1.01243 0.936101 0.2737 -0.977893 0.934785 0.115833 -1.00884 -10.7143 7.68364 0.938771 -10.7891 13.884 2.92481 -0.0 0.0 -0.0 -0.431737 17.2895 1.36109 -9.07692 -31.3642 66.1949 1.41865 -35.096 0.448627 -84.821 -8.42955 5.18895 -1.09872 0.517064 -7.12751 -0.0 0.0 -0.0 4.90839 18.4826 -8.36964 -13.6538 18.7261 -66.2241 0.655717 17.9951 -0.103828 23.5726 -0.219913 2.98199 -0.642479 -28.8555 -7.78512 0.0 0.0 0.0 8.5038 29.6331 -11.5839 -12.2751 0.307693 1.85507 15.7545 -2.68006 -2.22594 -6.54226 0.0 0.0 -0.0 0.0 -0.0 6.86069 -2.70846 -7.25656 -10.4972 -0.287865 -1.58301 12.1263 -8.27297 1.71066 -15.8307 0.0 0.0 0.0 0.0 0.0 
1870.55 741.728 -595.517 -177.53 -78.4034 -173.98 0.932292 0.064487 -0.979286 0.932817 0.126668 -0.973199 0.930726 0.313349 -0.930043 0.929556 0.162541 -0.967855 -10.8742 7.65101 1.12313 -10.9494 13.7116 3.11303 -0.0 0.0 -0.0 -0.845987 18.4667 0.882589 -9.38054 -31.2676 67.1606 1.42235 -35.1661 0.450755 -85.295 -8.48878 5.17724 -1.18776 0.408559 -7.77491 -0.0 0.0 -0.0 5.08203 18.5018 -8.7421 -12.7223 18.8875 -65.6512 0.6828 18.6876 -0.11235 24.6019 -0.201423 3.11217 -0.685138 -28.7394 -7.50825 0.0 0.0 0.0 9.23533 29.2318 -11.9791 -14.7113 0.321137 2.2286 16.9296 -2.33958 -2.37711 -6.54816 0.0 0.0 -0.0 0.0 -0.0 5.75012 -3.16966 -6.92988 -10.1123 -0.282462 -1.5242 13.8241 -9.21581 1.93832 -15.2698 0.0 0.0 0.0 0.0 0.0 
1877.18 736.009 -592.853 -179.386 -78.9242 -176.913 0.890746 0.0737633 -0.933801 0.891221 0.133031 -0.927216 0.889124 0.311297 -0.883475 0.888074 0.167868 -0.921547 -11.9569 7.58484 1.39504 -12.0489 13.4855 3.48366 -0.0 0.0 -0.0 -1.13755 19.3153 0.564207 -9.6554 -31.1982 67.8456 1.42461 -35.2089 0.452055 -85.0138 -8.45365 5.18424 -1.17712 0.155762 -7.81609 -0.0 0.0 -0.0 5.29516 19.1599 -9.14652 -11.6255 19.4554 -65.1434 0.756253 20.5372 -0.137008 25.3286 -0.186961 3.20387 -0.727994 -28.3879 -7.13662 0.0 0.0 0.0 11.9468 27.4275 -12.1565 -15.8092 0.322001 2.39704 16.543 -1.99963 -2.32452 -7.36434 0.0 0.0 -0.0 0.0 -0.0 3.97873 -3.09914 -6.82812 -10.0782 -0.281964 -1.51898 14.9674 -10.0013 2.0903 -14.6962 0.0 0.0 0.0 0.0 0.0 
1886.35 734.406 -585.648 177.299 -79.2284 179.844 0.731357 0.130144 -0.937364 0.731826 0.189525 -0.927184 0.728807 0.369145 -0.871395 0.727819 0.226898 -0.918754 -12.7433 7.83676 2.18371 -12.8436 13.5222 4.40344 -0.0 0.0 -0.0 -1.57844 20.0473 0.0223217 -11.4261 -31.162 67.6533 1.33358 -33.4477 0.400715 -85.1764 -8.47397 5.18021 -1.15354 0.199843 -7.63759 -0.0 0.0 -0.0 5.43953 19.6523 -9.41679 -9.86001 19.996 -64.0625 0.868315 23.2741 -0.178828 25.996 -0.172655 3.28793 -0.735294 -28.079 -6.97426 0.0 0.0 0.0 15.3254 25.4346 -11.9149 -16.6978 0.320338 2.53337 16.7614 -0.698496 -2.34473 -8.02238 0.0 0.0 -0.0 0.0 -0.0 0.838733 -3.06126 -7.70189 -10.8214 -0.292111 -1.63258 15.7718 -10.5316 2.19654 -14.2563 0.0 0.0 0.0 0.0 0.0 
1901.43 741.433 -584.618 169.668 -79.6683 172.646 0.546444 0.040766 -0.901429 0.546891 0.0980413 -0.897008 0.545455 0.27624 -0.85903 0.544451 0.137111 -0.891873 -11.9978 8.12094 3.29516 -12.063 13.2857 5.45828 -0.0 0.0 -0.0 -1.80783 21.0628 -0.149457 -13.0285 -31.65 67.8256 1.29106 -32.5997 0.377544 -85.1507 -8.47076 5.18085 -0.76982 0.2397 -5.04282 -0.0 0.0 -0.0 5.50768 18.9662 -9.62195 -8.88162 20.3559 -63.3532 0.932784 24.8 -0.20509 25.3336 -0.186859 3.2045 -0.639658 -26.4043 -6.83877 0.0 0.0 0.0 17.2626 22.1932 -10.8565 -23.3219 0.241423 3.54614 17.8947 3.54621 -2.47168 -4.5382 0.0 0.0 -0.0 0.0 -0.0 -1.06351 -0.856592 -7.50824 -11.0236 -0.294616 -1.6635 16.5015 -12.5552 2.29717 -15.5646 0.0 0.0 0.0 0.0 0.0 
1905.61 740.716 -593.09 168.146 -80.1606 171.101 0.451546 -0.0775738 -0.994475 0.452096 -0.0141387 -0.997395 0.452531 0.188092 -0.979603 0.451193 0.0310299 -0.997013 -11.0993 7.8714 2.70401 -11.1557 13.1061 4.72076 -0.0 0.0 -0.0 -1.96731 21.7415 -0.265673 -14.7726 -32.1215 68.508 1.25007 -31.7665 0.355712 -85.1422 -8.46969 5.18107 -0.46955 0.277935 -3.01742 -0.0 0.0 -0.0 5.55473 18.5001 -9.76192 -8.01472 19.9725 -61.2551 0.999648 26.3439 -0.233955 24.758 -0.198415 3.13188 -0.43334 -22.9682 -6.65858 0.0 0.0 0.0 17.9107 17.4945 -11.3194 -29.0097 0.0807194 4.40389 16.9732 10.176 -2.35148 0.80174 -0.0 -0.0 -0.0 0.0 -0.0 -1.61578 0.803873 -6.7052 -10.5678 -0.288815 -1.59381 16.7377 -13.3126 2.33078 -16.7018 0.0 0.0 0.0 0.0 0.0 
